<svg id="Capa_1" enable-background="new 0 0 512 512" height="512" viewBox="0 0 512 512" width="512" xmlns="http://www.w3.org/2000/svg"><g><path d="m488.468 88.177h-464.936c-12.975 0-23.532 10.557-23.532 23.533v288.58c0 12.976 10.557 23.532 23.532 23.532h464.936c12.976 0 23.532-10.557 23.532-23.532v-288.58c0-12.976-10.557-23.533-23.532-23.533zm8.532 312.113c0 4.705-3.828 8.532-8.532 8.532h-464.936c-4.705 0-8.532-3.828-8.532-8.532v-288.58c0-4.705 3.828-8.532 8.532-8.532h464.936c4.705 0 8.532 3.827 8.532 8.532z"/><path d="m438.646 246.17-170.41-103.728c-7.548-4.594-16.924-4.594-24.471 0l-170.411 103.728c-3.459 2.105-5.524 5.78-5.524 9.83s2.065 7.725 5.524 9.83l26.44 16.094c3.54 2.154 8.152 1.031 10.306-2.507 2.153-3.538 1.031-8.153-2.507-10.306l-21.539-13.111 165.51-100.745c2.736-1.666 6.135-1.666 8.873 0l165.509 100.745-165.51 100.745c-2.736 1.666-6.135 1.666-8.873 0l-114.332-69.594c-3.538-2.154-8.152-1.031-10.306 2.507s-1.032 8.152 2.507 10.306l114.332 69.594c3.774 2.297 8.005 3.446 12.236 3.446s8.462-1.149 12.235-3.446l170.41-103.728c3.459-2.105 5.525-5.78 5.525-9.83s-2.065-7.725-5.524-9.83z"/><path d="m256 199.371c10.047 0 19.976 2.728 28.712 7.887 3.566 2.106 8.166.923 10.272-2.644s.922-8.165-2.644-10.272c-11.046-6.524-23.612-9.972-36.34-9.972-39.496 0-71.629 32.133-71.629 71.629s32.133 71.629 71.629 71.629 71.629-32.133 71.629-71.629c0-12.728-3.448-25.295-9.973-36.341-2.106-3.566-6.704-4.751-10.271-2.644-3.567 2.106-4.75 6.705-2.644 10.272 5.16 8.737 7.888 18.665 7.888 28.712 0 .545-.026 1.084-.041 1.625-31.084-20.117-66.578-31.409-103.716-32.978 10.161-15.223 27.491-25.274 47.128-25.274zm53.755 74.404c-7.473 22.542-28.739 38.854-53.755 38.854-31.225 0-56.629-25.404-56.629-56.629 0-5.749.867-11.298 2.467-16.53 38.913.383 76.101 12.206 107.917 34.305z"/></g></svg>