<svg id="Capa_1" enable-background="new 0 0 512 512" height="512" viewBox="0 0 512 512" width="512" xmlns="http://www.w3.org/2000/svg"><g><path d="m223.936 216.436h-64.129c-4.142 0-7.5 3.358-7.5 7.5v40.081c0 21.816 17.749 39.564 39.564 39.564s39.564-17.749 39.564-39.564v-40.081c.001-4.143-3.357-7.5-7.499-7.5zm-7.5 47.58c0 13.545-11.02 24.564-24.564 24.564s-24.564-11.02-24.564-24.564v-32.581h49.129v32.581z"/><path d="m488.468 88.177h-464.936c-12.975 0-23.532 10.557-23.532 23.532v288.581c0 12.976 10.557 23.532 23.532 23.532h384.776c4.142 0 7.5-3.358 7.5-7.5s-3.358-7.5-7.5-7.5h-208.937v-73.542c40.411-3.793 72.145-37.895 72.145-79.281 0-14.962-4.243-29.607-12.271-42.352-2.207-3.504-6.837-4.557-10.343-2.349-3.505 2.208-4.557 6.838-2.349 10.343 6.518 10.348 9.963 22.229 9.963 34.358 0 35.646-29 64.645-64.645 64.645s-64.646-29-64.646-64.645 29-64.645 64.646-64.645c12.129 0 24.01 3.445 34.358 9.963 3.505 2.208 8.136 1.156 10.343-2.349s1.156-8.136-2.349-10.343c-10.605-6.68-22.528-10.729-34.852-11.904v-73.545h289.097c4.705 0 8.532 3.828 8.532 8.532v288.581c0 4.705-3.828 8.532-8.532 8.532h-48.1c-4.142 0-7.5 3.358-7.5 7.5s3.358 7.5 7.5 7.5h48.1c12.976 0 23.532-10.557 23.532-23.532v-288.58c0-12.975-10.557-23.532-23.532-23.532zm-304.097 88.542c-40.411 3.793-72.146 37.895-72.146 79.281s31.734 75.488 72.146 79.281v73.542h-160.839c-4.705 0-8.532-3.828-8.532-8.532v-288.582c0-4.705 3.828-8.532 8.532-8.532h160.839z"/></g></svg>