<svg
  xmlns="http://www.w3.org/2000/svg"
  enable-background="new 0 0 512 512"
  height="512"
  width="512"
  style=""
>
  <rect
    id="backgroundrect"
    width="100%"
    height="100%"
    x="0"
    y="0"
    fill="none"
    stroke="none"
  />
  <g class="currentLayer" style="">
    <title>Layer 1</title>
    <g id="svg_1" class="selected" fill="#ffffff" fill-opacity="1">
      <path
        d="m512 111.71c0-12.976-10.556-23.532-23.532-23.532h-464.935c-12.976-.001-23.533 10.556-23.533 23.532v288.58c0 12.976 10.557 23.533 23.533 23.533h464.935c12.976 0 23.532-10.557 23.532-23.533zm-151.263 183.854h136.262v87.911zm-80.173-7.5v120.758h-49.128v-120.758c0-4.142-3.358-7.501-7.501-7.501h-208.934v-49.128h208.935c4.142 0 7.501-3.358 7.501-7.501v-120.756h49.128v120.757c0 4.142 3.358 7.501 7.501 7.501h208.934v49.128h-208.935c-4.143-.001-7.501 3.358-7.501 7.5zm-64.129 120.758h-153.889l153.89-99.284v99.284zm-65.172-192.387h-136.262v-87.911zm-136.262 79.129h136.271l-136.271 87.917zm280.564-192.386h153.906l-153.906 99.294zm201.434 113.257h-136.254l136.254-87.905zm-.063-105.718-163.862 105.718h-31.48l175.548-113.256h11.326c4.368-.001 7.974 3.3 8.468 7.538zm-473.403-7.539h11.334l147.243 94.995c1.257.812 2.666 1.199 4.059 1.199 2.463 0 4.875-1.212 6.31-3.435 2.246-3.481 1.244-8.123-2.236-10.369l-127.705-82.39h153.898v113.256h-37.501l-163.87-105.722c.496-4.235 4.101-7.534 8.468-7.534zm-8.468 298.114 163.878-105.727h31.48l-175.548 113.257h-11.342c-4.365 0-7.969-3.297-8.468-7.53zm473.403 7.53h-11.334l-147.243-94.996c-3.48-2.245-8.122-1.245-10.369 2.237-2.246 3.481-1.244 8.123 2.236 10.369l127.705 82.39h-153.898v-113.258h37.501l163.869 105.723c-.495 4.236-4.101 7.535-8.467 7.535z"
        id="svg_2"
        fill="#ffffff"
        fill-opacity="1"
      />
    </g>
  </g>
</svg>
