<?xml version="1.0" encoding="UTF-8"?>
<svg xmlns="http://www.w3.org/2000/svg" xmlns:xlink="http://www.w3.org/1999/xlink" width="150pt" height="150pt" viewBox="0 0 150 150" version="1.1">
<g id="surface1">
<path style=" stroke:none;fill-rule:nonzero;fill:rgb(100%,100%,100%);fill-opacity:1;" d="M 146.453125 85.328125 C 144.921875 84.945312 143.386719 85.328125 142.042969 86.289062 C 137.0625 90.503906 131.308594 93.957031 124.984375 96.253906 C 119.042969 98.554688 112.523438 99.707031 105.621094 99.707031 C 90.097656 99.707031 75.910156 93.378906 65.75 83.21875 C 55.589844 73.058594 49.265625 58.875 49.265625 43.347656 C 49.265625 36.832031 50.414062 30.503906 52.332031 24.753906 C 54.441406 18.621094 57.507812 13.058594 61.535156 8.269531 C 63.257812 6.160156 62.875 3.09375 60.765625 1.367188 C 59.425781 0.410156 57.890625 0.0273438 56.359375 0.410156 C 40.0625 4.816406 25.878906 14.59375 15.71875 27.628906 C 5.941406 40.472656 0 56.382812 0 73.828125 C 0 94.722656 8.433594 113.699219 22.238281 127.5 C 36.039062 141.304688 55.015625 149.738281 75.910156 149.738281 C 93.546875 149.738281 109.839844 143.605469 122.875 133.445312 C 136.101562 123.09375 145.6875 108.332031 149.710938 91.464844 C 150.671875 88.585938 149.136719 85.902344 146.453125 85.328125 Z M 117.125 125.394531 C 106.007812 134.210938 91.820312 139.578125 76.292969 139.578125 C 58.082031 139.578125 41.597656 132.101562 29.710938 120.21875 C 17.828125 108.332031 10.351562 91.847656 10.351562 73.636719 C 10.351562 58.492188 15.335938 44.691406 23.960938 33.570312 C 29.902344 25.902344 37.378906 19.578125 46.007812 15.167969 C 45.046875 17.277344 44.089844 19.386719 43.324219 21.6875 C 40.832031 28.585938 39.679688 35.871094 39.679688 43.539062 C 39.679688 61.75 47.15625 78.429688 59.042969 90.3125 C 70.925781 102.199219 87.605469 109.675781 105.816406 109.675781 C 113.867188 109.675781 121.535156 108.332031 128.625 105.648438 C 131.117188 104.691406 133.609375 103.730469 135.910156 102.582031 C 131.308594 111.398438 124.984375 119.257812 117.125 125.394531 Z M 117.125 125.394531 "/>
</g>
</svg>
