<?xml version="1.0" encoding="UTF-8"?>
<svg xmlns="http://www.w3.org/2000/svg" xmlns:xlink="http://www.w3.org/1999/xlink" width="150pt" height="150pt" viewBox="0 0 150 150" version="1.1">
<g id="surface1">
<path style=" stroke:none;fill-rule:nonzero;fill:rgb(0%,0%,0%);fill-opacity:1;" d="M 101.585938 48.414062 C 94.839844 41.667969 85.316406 37.300781 75 37.300781 C 64.683594 37.300781 55.160156 41.46875 48.414062 48.414062 C 41.667969 55.160156 37.300781 64.683594 37.300781 75 C 37.300781 85.316406 41.667969 94.839844 48.414062 101.585938 C 55.160156 108.332031 64.683594 112.699219 75 112.699219 C 85.316406 112.699219 94.839844 108.53125 101.585938 101.585938 C 108.332031 94.839844 112.699219 85.316406 112.699219 75 C 112.699219 64.683594 108.53125 55.160156 101.585938 48.414062 Z M 94.445312 94.445312 C 89.484375 99.40625 82.539062 102.382812 75 102.382812 C 67.460938 102.382812 60.515625 99.40625 55.554688 94.445312 C 50.59375 89.484375 47.617188 82.539062 47.617188 75 C 47.617188 67.460938 50.59375 60.515625 55.554688 55.554688 C 60.515625 50.59375 67.460938 47.617188 75 47.617188 C 82.539062 47.617188 89.484375 50.59375 94.445312 55.554688 C 99.40625 60.515625 102.382812 67.460938 102.382812 75 C 102.382812 82.539062 99.40625 89.484375 94.445312 94.445312 Z M 94.445312 94.445312 "/>
<path style=" stroke:none;fill-rule:nonzero;fill:rgb(0%,0%,0%);fill-opacity:1;" d="M 144.839844 69.839844 L 129.5625 69.839844 C 126.785156 69.839844 124.40625 72.222656 124.40625 75 C 124.40625 77.777344 126.785156 80.160156 129.5625 80.160156 L 144.839844 80.160156 C 147.617188 80.160156 150 77.777344 150 75 C 150 72.222656 147.617188 69.839844 144.839844 69.839844 Z M 144.839844 69.839844 "/>
<path style=" stroke:none;fill-rule:nonzero;fill:rgb(0%,0%,0%);fill-opacity:1;" d="M 75 124.40625 C 72.222656 124.40625 69.839844 126.785156 69.839844 129.5625 L 69.839844 144.839844 C 69.839844 147.617188 72.222656 150 75 150 C 77.777344 150 80.160156 147.617188 80.160156 144.839844 L 80.160156 129.5625 C 80.160156 126.785156 77.777344 124.40625 75 124.40625 Z M 75 124.40625 "/>
<path style=" stroke:none;fill-rule:nonzero;fill:rgb(0%,0%,0%);fill-opacity:1;" d="M 127.976562 120.832031 L 117.0625 109.921875 C 115.277344 107.9375 111.90625 107.9375 109.921875 109.921875 C 107.9375 111.90625 107.9375 115.078125 109.921875 117.0625 L 120.832031 127.976562 C 122.816406 129.960938 125.992188 129.960938 127.976562 127.976562 C 129.960938 125.992188 129.960938 122.816406 127.976562 120.832031 Z M 127.976562 120.832031 "/>
<path style=" stroke:none;fill-rule:nonzero;fill:rgb(0%,0%,0%);fill-opacity:1;" d="M 75 0 C 72.222656 0 69.839844 2.382812 69.839844 5.160156 L 69.839844 20.4375 C 69.839844 23.214844 72.222656 25.59375 75 25.59375 C 77.777344 25.59375 80.160156 23.214844 80.160156 20.4375 L 80.160156 5.160156 C 80.160156 2.382812 77.777344 0 75 0 Z M 75 0 "/>
<path style=" stroke:none;fill-rule:nonzero;fill:rgb(0%,0%,0%);fill-opacity:1;" d="M 128.175781 22.023438 C 126.191406 20.039062 123.015625 20.039062 121.03125 22.023438 L 110.117188 32.9375 C 108.136719 34.921875 108.136719 38.09375 110.117188 40.078125 C 111.90625 42.0625 115.277344 42.0625 117.261719 40.078125 L 128.175781 29.167969 C 130.160156 27.183594 130.160156 24.007812 128.175781 22.023438 Z M 128.175781 22.023438 "/>
<path style=" stroke:none;fill-rule:nonzero;fill:rgb(0%,0%,0%);fill-opacity:1;" d="M 20.4375 69.839844 L 5.160156 69.839844 C 2.382812 69.839844 0 72.222656 0 75 C 0 77.777344 2.183594 80.160156 5.160156 80.160156 L 20.4375 80.160156 C 23.214844 80.160156 25.59375 77.777344 25.59375 75 C 25.59375 72.222656 23.214844 69.839844 20.4375 69.839844 Z M 20.4375 69.839844 "/>
<path style=" stroke:none;fill-rule:nonzero;fill:rgb(0%,0%,0%);fill-opacity:1;" d="M 39.882812 109.921875 C 38.09375 107.9375 34.722656 107.9375 32.738281 109.921875 L 21.824219 120.832031 C 19.839844 122.816406 19.839844 125.992188 21.824219 127.976562 C 23.808594 129.960938 26.984375 129.960938 28.96875 127.976562 L 39.882812 117.0625 C 41.863281 115.078125 41.863281 111.90625 39.882812 109.921875 Z M 39.882812 109.921875 "/>
<path style=" stroke:none;fill-rule:nonzero;fill:rgb(0%,0%,0%);fill-opacity:1;" d="M 39.882812 32.9375 L 28.96875 22.023438 C 26.984375 20.039062 23.808594 20.039062 21.824219 22.023438 C 19.839844 24.007812 19.839844 27.183594 21.824219 29.167969 L 32.738281 40.078125 C 34.722656 42.0625 37.898438 42.0625 39.882812 40.078125 C 41.863281 38.09375 41.863281 34.921875 39.882812 32.9375 Z M 39.882812 32.9375 "/>
</g>
</svg>
