<?xml version="1.0" encoding="UTF-8" standalone="no"?>
<svg
   xmlns:dc="http://purl.org/dc/elements/1.1/"
   xmlns:cc="http://creativecommons.org/ns#"
   xmlns:rdf="http://www.w3.org/1999/02/22-rdf-syntax-ns#"
   xmlns:svg="http://www.w3.org/2000/svg"
   xmlns="http://www.w3.org/2000/svg"
   xmlns:sodipodi="http://sodipodi.sourceforge.net/DTD/sodipodi-0.dtd"
   xmlns:inkscape="http://www.inkscape.org/namespaces/inkscape"
   inkscape:version="1.0 (4035a4fb49, 2020-05-01)"
   sodipodi:docname="uk.svg"
   id="svg112"
   version="1.1"
   width="512"
   height="335.64499"
   enable-background="new 0 0 512 512">
  <metadata
     id="metadata118">
    <rdf:RDF>
      <cc:Work
         rdf:about="">
        <dc:format>image/svg+xml</dc:format>
        <dc:type
           rdf:resource="http://purl.org/dc/dcmitype/StillImage" />
        <dc:title></dc:title>
      </cc:Work>
    </rdf:RDF>
  </metadata>
  <defs
     id="defs116" />
  <sodipodi:namedview
     inkscape:current-layer="svg112"
     inkscape:window-maximized="1"
     inkscape:window-y="-9"
     inkscape:window-x="-9"
     inkscape:cy="167.822"
     inkscape:cx="256"
     inkscape:zoom="1.6210938"
     fit-margin-bottom="0"
     fit-margin-right="0"
     fit-margin-left="0"
     fit-margin-top="0"
     showgrid="false"
     id="namedview114"
     inkscape:window-height="1001"
     inkscape:window-width="1920"
     inkscape:pageshadow="2"
     inkscape:pageopacity="0"
     guidetolerance="10"
     gridtolerance="10"
     objecttolerance="10"
     borderopacity="1"
     bordercolor="#666666"
     pagecolor="#ffffff" />
  <rect
     stroke="none"
     fill="none"
     y="-88.178001"
     x="-1.4210855e-14"
     height="100%"
     width="100%"
     id="backgroundrect" />
  <g
     transform="translate(0,-88.178)"
     id="g110"
     class="currentLayer">
    <title
       id="title106">Layer 1</title>
    <g
       fill-opacity="1"
       fill="#ffffff"
       class="selected"
       id="svg_1">
      <path
         fill-opacity="1"
         fill="#ffffff"
         id="svg_2"
         d="M 512,111.71 C 512,98.734 501.444,88.178 488.468,88.178 H 23.533 C 10.557,88.177 0,98.734 0,111.71 v 288.58 c 0,12.976 10.557,23.533 23.533,23.533 H 488.468 C 501.444,423.823 512,413.266 512,400.29 Z M 360.737,295.564 h 136.262 v 87.911 z m -80.173,-7.5 V 408.822 H 231.436 V 288.064 c 0,-4.142 -3.358,-7.501 -7.501,-7.501 H 15.001 v -49.128 h 208.935 c 4.142,0 7.501,-3.358 7.501,-7.501 V 103.178 h 49.128 v 120.757 c 0,4.142 3.358,7.501 7.501,7.501 H 497 v 49.128 H 288.065 c -4.143,-0.001 -7.501,3.358 -7.501,7.5 z M 216.435,408.822 H 62.546 l 153.89,-99.284 v 99.284 z M 151.263,216.435 H 15.001 V 128.524 Z M 15.001,295.564 H 151.272 L 15.001,383.481 Z M 295.565,103.178 H 449.471 L 295.565,202.472 Z M 496.999,216.435 H 360.745 L 496.999,128.53 Z M 496.936,110.717 333.074,216.435 h -31.48 L 477.142,103.179 h 11.326 c 4.368,-0.001 7.974,3.3 8.468,7.538 z M 23.533,103.178 h 11.334 l 147.243,94.995 c 1.257,0.812 2.666,1.199 4.059,1.199 2.463,0 4.875,-1.212 6.31,-3.435 2.246,-3.481 1.244,-8.123 -2.236,-10.369 L 62.538,103.178 H 216.436 V 216.434 H 178.935 L 15.065,110.712 c 0.496,-4.235 4.101,-7.534 8.468,-7.534 z M 15.065,401.292 178.943,295.565 h 31.48 L 34.875,408.822 H 23.533 c -4.365,0 -7.969,-3.297 -8.468,-7.53 z m 473.403,7.53 H 477.134 L 329.891,313.826 c -3.48,-2.245 -8.122,-1.245 -10.369,2.237 -2.246,3.481 -1.244,8.123 2.236,10.369 l 127.705,82.39 H 295.565 V 295.564 h 37.501 l 163.869,105.723 c -0.495,4.236 -4.101,7.535 -8.467,7.535 z" />
    </g>
  </g>
</svg>
