<?xml version="1.0" encoding="UTF-8" standalone="no"?>
<svg
   xmlns:dc="http://purl.org/dc/elements/1.1/"
   xmlns:cc="http://creativecommons.org/ns#"
   xmlns:rdf="http://www.w3.org/1999/02/22-rdf-syntax-ns#"
   xmlns:svg="http://www.w3.org/2000/svg"
   xmlns="http://www.w3.org/2000/svg"
   xmlns:sodipodi="http://sodipodi.sourceforge.net/DTD/sodipodi-0.dtd"
   xmlns:inkscape="http://www.inkscape.org/namespaces/inkscape"
   inkscape:version="1.0 (4035a4fb49, 2020-05-01)"
   sodipodi:docname="brazil.svg"
   version="1.1"
   width="512"
   viewBox="0 0 512 335.64499"
   height="335.64499"
   enable-background="new 0 0 512 512"
   id="Capa_1">
  <metadata
     id="metadata38">
    <rdf:RDF>
      <cc:Work
         rdf:about="">
        <dc:format>image/svg+xml</dc:format>
        <dc:type
           rdf:resource="http://purl.org/dc/dcmitype/StillImage" />
        <dc:title></dc:title>
      </cc:Work>
    </rdf:RDF>
  </metadata>
  <defs
     id="defs36" />
  <sodipodi:namedview
     inkscape:current-layer="Capa_1"
     inkscape:window-maximized="1"
     inkscape:window-y="-9"
     inkscape:window-x="-9"
     inkscape:cy="167.823"
     inkscape:cx="256"
     inkscape:zoom="1.6210938"
     fit-margin-bottom="0"
     fit-margin-right="0"
     fit-margin-left="0"
     fit-margin-top="0"
     showgrid="false"
     id="namedview34"
     inkscape:window-height="1001"
     inkscape:window-width="1920"
     inkscape:pageshadow="2"
     inkscape:pageopacity="0"
     guidetolerance="10"
     gridtolerance="10"
     objecttolerance="10"
     borderopacity="1"
     bordercolor="#666666"
     pagecolor="#ffffff" />
  <g
     transform="translate(0,-88.177)"
     id="g31">
    <path
       id="path25"
       d="M 488.468,88.177 H 23.532 C 10.557,88.177 0,98.734 0,111.71 v 288.58 c 0,12.976 10.557,23.532 23.532,23.532 H 488.468 C 501.444,423.822 512,413.265 512,400.29 V 111.71 C 512,98.734 501.443,88.177 488.468,88.177 Z M 497,400.29 c 0,4.705 -3.828,8.532 -8.532,8.532 H 23.532 C 18.827,408.822 15,404.994 15,400.29 V 111.71 c 0,-4.705 3.828,-8.532 8.532,-8.532 h 464.936 c 4.705,0 8.532,3.827 8.532,8.532 z" />
    <path
       id="path27"
       d="M 438.646,246.17 268.236,142.442 c -7.548,-4.594 -16.924,-4.594 -24.471,0 L 73.354,246.17 c -3.459,2.105 -5.524,5.78 -5.524,9.83 0,4.05 2.065,7.725 5.524,9.83 l 26.44,16.094 c 3.54,2.154 8.152,1.031 10.306,-2.507 2.153,-3.538 1.031,-8.153 -2.507,-10.306 L 86.054,256 251.564,155.255 c 2.736,-1.666 6.135,-1.666 8.873,0 L 425.946,256 260.436,356.745 c -2.736,1.666 -6.135,1.666 -8.873,0 L 137.231,287.151 c -3.538,-2.154 -8.152,-1.031 -10.306,2.507 -2.154,3.538 -1.032,8.152 2.507,10.306 l 114.332,69.594 c 3.774,2.297 8.005,3.446 12.236,3.446 4.231,0 8.462,-1.149 12.235,-3.446 L 438.645,265.83 c 3.459,-2.105 5.525,-5.78 5.525,-9.83 0,-4.05 -2.065,-7.725 -5.524,-9.83 z" />
    <path
       id="path29"
       d="m 256,199.371 c 10.047,0 19.976,2.728 28.712,7.887 3.566,2.106 8.166,0.923 10.272,-2.644 2.106,-3.567 0.922,-8.165 -2.644,-10.272 -11.046,-6.524 -23.612,-9.972 -36.34,-9.972 -39.496,0 -71.629,32.133 -71.629,71.629 0,39.496 32.133,71.629 71.629,71.629 39.496,0 71.629,-32.133 71.629,-71.629 0,-12.728 -3.448,-25.295 -9.973,-36.341 -2.106,-3.566 -6.704,-4.751 -10.271,-2.644 -3.567,2.106 -4.75,6.705 -2.644,10.272 5.16,8.737 7.888,18.665 7.888,28.712 0,0.545 -0.026,1.084 -0.041,1.625 C 281.504,237.506 246.01,226.214 208.872,224.645 219.033,209.422 236.363,199.371 256,199.371 Z m 53.755,74.404 c -7.473,22.542 -28.739,38.854 -53.755,38.854 -31.225,0 -56.629,-25.404 -56.629,-56.629 0,-5.749 0.867,-11.298 2.467,-16.53 38.913,0.383 76.101,12.206 107.917,34.305 z" />
  </g>
</svg>
